<?xml version="1.0" standalone="no"?>
<!DOCTYPE svg PUBLIC "-//W3C//DTD SVG 20010904//EN"
 "http://www.w3.org/TR/2001/REC-SVG-20010904/DTD/svg10.dtd">
<svg version="1.0" xmlns="http://www.w3.org/2000/svg"
 width="245.000000pt" height="245.000000pt" viewBox="0 0 245.000000 245.000000"
 preserveAspectRatio="xMidYMid meet">
<metadata>
Created by potrace 1.11, written by Peter Selinger 2001-2013
</metadata>
<g transform="translate(0.000000,245.000000) scale(0.100000,-0.100000)"
fill="#000000" stroke="none">
<path d="M136 2340 c-26 -10 -61 -33 -77 -51 -62 -70 -60 -24 -57 -1030 l3
-916 30 -49 c24 -39 43 -55 92 -80 35 -17 73 -42 85 -56 50 -57 78 -63 268
-63 l175 0 49 34 c34 24 55 48 72 85 l24 51 0 655 0 655 81 -85 c315 -331 292
-310 339 -310 38 0 47 5 89 49 52 55 224 240 295 316 l46 50 0 -612 c0 -405 4
-621 11 -640 24 -64 63 -106 125 -134 34 -16 64 -35 67 -43 3 -8 27 -27 54
-43 46 -27 53 -28 208 -31 160 -4 160 -3 215 25 37 19 65 44 85 73 l30 45 3
929 2 928 -27 51 c-28 51 -98 107 -134 107 -9 0 -28 15 -42 34 -16 20 -47 42
-81 56 -50 20 -68 22 -208 18 -164 -4 -189 -10 -243 -64 -21 -21 -71 -104 -66
-111 0 -2 1 -33 1 -70 l-1 -68 -62 -66 c-34 -36 -116 -123 -182 -194 -66 -71
-150 -161 -187 -200 l-68 -70 -67 70 c-36 39 -114 121 -173 183 l-108 113 -4
117 c-4 114 -5 119 -37 166 -26 37 -48 55 -95 76 -33 16 -66 37 -73 48 -6 11
-35 31 -64 46 -50 25 -61 26 -198 26 -119 -1 -155 -4 -195 -20z"/>
</g>
</svg>
