<?xml version="1.0" standalone="no"?>
<!DOCTYPE svg PUBLIC "-//W3C//DTD SVG 20010904//EN"
 "http://www.w3.org/TR/2001/REC-SVG-20010904/DTD/svg10.dtd">
<svg version="1.0" xmlns="http://www.w3.org/2000/svg"
 width="200.000000pt" height="200.000000pt" viewBox="0 0 200.000000 200.000000"
 preserveAspectRatio="xMidYMid meet">
<metadata>
Created by potrace 1.11, written by Peter Selinger 2001-2013
</metadata>
<g transform="translate(0.000000,200.000000) scale(0.100000,-0.100000)"
fill="#000000" stroke="none">
<path d="M525 1728 c-2 -7 -6 -184 -9 -393 -7 -443 -21 -853 -31 -877 -8 -20
19 -26 30 -7 10 15 24 419 31 876 4 210 10 380 14 378 14 -8 126 -160 153
-207 15 -26 34 -75 43 -110 28 -109 53 -143 83 -112 25 27 171 220 211 279 19
28 38 55 42 60 4 6 17 21 27 35 l19 25 11 -28 c6 -16 16 -86 21 -155 6 -70 17
-206 25 -302 8 -96 17 -254 20 -350 6 -189 13 -241 34 -248 11 -4 13 5 8 44
-4 27 -9 126 -12 219 -3 94 -12 249 -20 345 -8 96 -19 231 -25 300 -10 124
-26 200 -46 220 -12 12 -40 -17 -100 -102 -80 -112 -229 -308 -235 -308 -9 0
-13 11 -34 93 -18 71 -63 151 -133 242 -63 81 -79 95 -104 95 -10 0 -20 -6
-23 -12z"/>
</g>
</svg>
